# xmcd CD database file
#
# Track frame offsets:
#	150
#	15898
#	35251
#	49592
#	67199
#	80867
#	96379
#	112075
#	122808
#	137444
#	152935
#	174092
#	189623
#
# Disc length: 2700 seconds
#
# Revision: 1
# Processed by: cddbd v1.5.1PL0 Copyright (c) Steve Scherf et al.
# Submitted via: CDex 1.51
#
DISCID=ac0a8a0d
DTITLE=Hilde Louise Asbjørnsen - Birdie Blues
DYEAR=2005
DGENRE=Jazz
TTITLE0=Prison Song
TTITLE1=A Hole in his Heart
TTITLE2=Let the Music Be Wise
TTITLE3=Angel Swing
TTITLE4=Autumn is Near
TTITLE5=All He Needs to Know
TTITLE6=It's Gonna Rain Again
TTITLE7=In My Sick Little Mind
TTITLE8=Spring Song
TTITLE9=Arms
TTITLE10=There'll Come a Day
TTITLE11=Birdie Blues
TTITLE12=That's Why I'm Drinking Again (Bonus Track)
EXTD=YEAR: 2005
EXTT0=
EXTT1=
EXTT2=
EXTT3=
EXTT4=
EXTT5=
EXTT6=
EXTT7=
EXTT8=
EXTT9=
EXTT10=
EXTT11=
EXTT12=
PLAYORDER=
